<?xml version="1.0" encoding="UTF-8"?>
<svg xmlns="http://www.w3.org/2000/svg" width="371" height="69" viewBox="0 0 371 69" fill="none">
  <path fill-rule="evenodd" clip-rule="evenodd" d="M34.2154 68.4308C53.1121 68.4308 68.4308 53.1121 68.4308 34.2154C68.4308 15.3188 53.1121 0 34.2154 0C15.3188 0 0 15.3188 0 34.2154C0 53.1121 15.3188 68.4308 34.2154 68.4308ZM34.3628 17.1077C31.6154 17.1077 27.8134 18.6789 25.8708 20.617L20.5945 25.8809H46.8935L55.6872 17.1077H34.3628ZM42.5158 47.8139C40.5731 49.752 36.7711 51.3231 34.0238 51.3231H12.6993L21.493 42.55H47.792L42.5158 47.8139ZM51.0631 30.2675H16.2071L14.5607 31.9125C10.6621 35.4218 11.8184 38.1634 17.2782 38.1634H52.2285L53.8755 36.5184C57.7362 33.0298 56.5229 30.2675 51.0631 30.2675Z" fill="#008156"></path>
  <path fill-rule="evenodd" clip-rule="evenodd" d="M88.4874 43.9163L85.5386 48.1809C89.3683 52.1765 94.4618 54.1743 100.819 54.1743C105.517 54.1743 109.155 53.0986 111.734 50.9471C114.338 48.77 115.64 46.0166 115.64 42.6869C115.64 40.6891 115.206 38.9602 114.338 37.5002C113.47 36.0403 112.346 34.9261 110.968 34.1577C109.615 33.3637 108.096 32.6978 106.41 32.1599C104.751 31.622 103.079 31.1738 101.394 30.8152C99.734 30.431 98.2149 30.034 96.8362 29.6242C95.483 29.1888 94.3724 28.5997 93.5044 27.8569C92.6363 27.0885 92.2023 26.1536 92.2023 25.0523C92.2023 23.3362 92.9682 21.9147 94.5001 20.7877C96.032 19.6351 98.0617 19.0588 100.589 19.0588C102.989 19.0588 105.172 19.507 107.138 20.4035C109.13 21.2743 110.712 22.4269 111.887 23.8613L114.606 19.7888C111.032 16.1005 106.359 14.2563 100.589 14.2563C96.2234 14.2563 92.7895 15.3065 90.2874 17.4068C87.7853 19.4814 86.5343 22.0811 86.5343 25.2059C86.5343 27.1013 86.9683 28.7405 87.8364 30.1237C88.7045 31.4811 89.8278 32.5313 91.2065 33.2741C92.5852 34.0168 94.1043 34.6444 95.7639 35.1566C97.4489 35.6689 99.1212 36.1171 100.781 36.5013C102.44 36.8855 103.959 37.3081 105.338 37.7692C106.717 38.2302 107.84 38.8833 108.708 39.7286C109.576 40.5738 110.01 41.6111 110.01 42.8406C110.01 44.7871 109.206 46.3624 107.598 47.5662C106.015 48.77 103.806 49.3719 100.972 49.3719C98.4957 49.3719 96.1341 48.8468 93.8873 47.7967C91.6406 46.7465 89.8406 45.4531 88.4874 43.9163ZM122.077 15.2168V42.0337C122.077 50.1275 126.098 54.1743 134.141 54.1743C136.796 54.1743 139.311 53.5724 141.685 52.3686C144.059 51.1648 146.038 49.6664 147.621 47.8735V53.2139H153.519V15.2168H147.621V43.1479C146.472 44.7615 144.876 46.119 142.834 47.2204C140.791 48.3218 138.672 48.8724 136.477 48.8724C133.694 48.8724 131.575 48.2321 130.119 46.9515C128.664 45.6452 127.936 43.404 127.936 40.228V15.2168H122.077ZM162.139 53.2139V15.2168H167.998V21.2871C169.632 19.1869 171.534 17.5092 173.704 16.2542C175.875 14.9735 178.185 14.3332 180.636 14.3332V20.4035C179.717 20.301 178.964 20.2498 178.377 20.2498C176.564 20.2498 174.598 20.8773 172.479 22.1324C170.36 23.3618 168.866 24.7577 167.998 26.3201V53.2139H162.139ZM185.043 24.1686C183.46 27.191 182.669 30.5207 182.669 34.1577C182.669 40.0743 184.482 44.8896 188.107 48.6035C191.733 52.3174 196.379 54.1743 202.047 54.1743C208.073 54.1743 213.09 52.2021 217.098 48.2577L214.302 44.4158C212.77 45.9782 210.97 47.182 208.902 48.0272C206.86 48.8724 204.728 49.2951 202.507 49.2951C198.575 49.2951 195.384 48.04 192.933 45.5299C190.507 43.0198 189.179 39.895 188.95 36.1555H219.549V34.6572C219.549 30.8152 218.834 27.3702 217.404 24.3223C216 21.2487 213.907 18.8027 211.124 16.9841C208.341 15.1656 205.085 14.2563 201.358 14.2563C197.809 14.2563 194.605 15.1528 191.745 16.9457C188.886 18.713 186.652 21.1207 185.043 24.1686ZM213.728 31.7373H188.873C188.95 30.2517 189.269 28.7918 189.83 27.3574C190.392 25.8975 191.158 24.5528 192.128 23.3234C193.124 22.0683 194.413 21.0566 195.996 20.2882C197.579 19.5198 199.341 19.1356 201.281 19.1356C203.349 19.1356 205.2 19.5326 206.834 20.3266C208.468 21.095 209.77 22.1068 210.741 23.3618C211.711 24.6168 212.439 25.9615 212.924 27.3959C213.434 28.8302 213.702 30.2773 213.728 31.7373ZM261.849 44.6867C259.136 49.4884 254.23 54.1745 245.802 54.1745C234.199 54.1745 225.252 46.0751 225.252 34.2155C225.252 22.2979 234.199 14.2565 245.802 14.2565C254.23 14.2565 259.136 18.8268 261.849 23.6864L254.807 27.1575C253.191 24.0335 249.727 21.5458 245.802 21.5458C238.759 21.5458 233.679 26.9261 233.679 34.2155C233.679 41.5048 238.759 46.8851 245.802 46.8851C249.727 46.8851 253.191 44.3974 254.807 41.2734L261.849 44.6867ZM287.404 14.8928L302.239 53.4802H292.945L290.521 46.9429H274.011L271.587 53.4802H262.293L277.129 14.8928H287.404ZM276.263 39.7114H288.27L282.266 23.1078L276.263 39.7114ZM337.024 53.4802L328.308 38.7858C332.464 37.8023 336.793 34.0998 336.793 27.331C336.793 20.1574 331.829 14.8928 323.805 14.8928H305.795V53.4802H313.992V39.7693H319.995L327.557 53.4802H337.024ZM322.65 32.5377H313.992V22.1244H322.65C325.883 22.1244 328.365 24.0913 328.365 27.2732C328.365 30.5708 325.883 32.5377 322.65 32.5377ZM359.468 22.1244V53.4802H351.214V22.1244H339.957V14.8928H370.667V22.1244H359.468Z" fill="#26282C"></path>
</svg>
